<?xml version="1.0" encoding="UTF-8" standalone="no"?>
<!DOCTYPE svg PUBLIC "-//W3C//DTD SVG 1.1//EN" "http://www.w3.org/Graphics/SVG/1.1/DTD/svg11.dtd">
<svg width="57.00" height="50.04" viewBox="0.00 0.00 475.00 417.00" xmlns="http://www.w3.org/2000/svg" xmlns:xlink="http://www.w3.org/1999/xlink">
<defs>
		<style type="text/css">
			.heart_blank.fill:hover
			{
				cursor : pointer;
				stroke: rgb(255, 118, 118);
				fill-opacity: 1;
			}
		</style>
	</defs>
<g stroke-linecap="round">
<path class="heart_blank fill" d="M238.72,156.26 C238.72,156.26 276.41,119.16 276.41,119.16 C276.41,119.16 294.63,92.31 294.63,92.31 C294.63,92.31 323.33,82.96 323.33,82.96 C323.33,82.96 362.59,88.89 362.59,88.89 C362.59,88.89 395.52,140.90 395.52,140.90 C395.52,140.90 385.19,181.85 385.19,181.85 C385.19,181.85 371.48,196.30 371.48,196.30 C371.48,196.30 355.66,212.59 355.66,212.59 C355.66,212.59 348.35,221.72 348.35,221.72 C348.35,221.72 316.30,256.67 316.30,256.67 C313.29,256.21 303.70,254.74 301.28,254.98 C299.23,255.22 296.02,256.98 294.63,258.50 C292.83,260.58 290.88,267.77 290.69,273.15 C290.63,277.47 290.52,284.64 290.48,287.48 C290.48,287.48 240.77,329.97 240.77,329.97 C240.77,329.97 172.96,275.56 172.96,275.56 C172.96,275.56 144.44,242.59 144.44,242.59 C144.44,242.59 122.96,218.15 122.96,218.15 C122.96,218.15 85.19,165.76 85.19,165.76 C85.19,165.76 86.67,128.52 86.67,128.52 C86.67,128.52 128.34,83.54 128.34,83.54 C128.34,83.54 166.30,93.33 166.30,93.33 C166.30,93.33 192.59,116.67 192.59,116.67 C192.59,116.67 238.72,156.26 238.72,156.26 Z" fill="none" stroke="rgb(255, 255, 255)" stroke-width="148.15" stroke-opacity="1.00" stroke-linejoin="round"/>
<path class="heart_blank" d="M237.94,60.88 C238.20,61.11 240.60,57.25 244.11,53.27 C249.72,47.10 263.50,32.39 266.74,29.43 C273.02,23.74 283.98,16.30 290.03,13.80 C296.27,11.25 309.63,7.61 317.87,6.79 C324.20,6.18 340.77,6.74 348.82,7.62 C357.11,8.55 372.77,12.02 380.00,14.75 C387.31,17.54 400.71,24.66 407.12,28.84 C414.19,33.48 424.20,42.40 428.67,47.56 C432.72,52.26 442.87,66.58 445.51,71.44 C448.68,77.39 456.52,93.56 458.04,97.35 C460.90,104.55 464.88,119.45 466.10,127.60 C467.06,134.58 468.15,150.65 468.13,157.76 C468.08,165.75 465.70,181.61 463.37,189.53 C461.41,196.09 454.85,210.48 450.88,217.28 C446.99,223.89 437.22,237.45 432.42,244.01 C427.76,250.08 416.62,264.29 413.66,267.72 C403.15,279.73 382.86,300.08 371.54,310.67 C364.24,317.31 335.94,341.17 323.38,351.60 C311.29,361.34 284.53,382.09 270.48,392.28 C263.84,396.95 252.63,404.45 248.07,407.28 C245.56,408.85 239.07,410.70 236.55,410.24 C231.16,409.10 219.11,400.76 213.72,397.06 C199.43,387.00 174.39,369.16 158.55,356.94 C145.98,347.10 118.93,324.77 110.02,316.56 C98.71,305.72 70.78,276.81 65.68,270.90 C60.71,265.04 50.71,253.02 45.67,246.85 C38.88,238.27 31.29,227.56 27.37,221.02 C22.91,213.52 16.75,199.91 14.23,192.44 C11.70,184.88 8.22,169.28 7.27,161.76 C6.39,154.58 6.10,140.33 7.28,131.96 C8.39,124.30 12.43,110.26 15.50,102.67 C18.27,95.90 24.85,83.15 30.07,75.49 C34.55,68.95 44.85,56.15 50.25,50.34 C54.85,45.42 65.93,35.24 73.27,30.36 C79.53,26.23 92.98,19.80 99.56,17.34 C106.54,14.77 122.28,11.19 130.41,10.21 C134.45,9.74 141.75,9.32 145.75,9.34 C153.10,9.42 166.14,12.56 176.04,16.17 C182.69,18.71 198.50,26.21 201.69,28.09 C208.12,31.91 219.57,41.32 226.90,48.39 C229.57,51.05 236.01,57.61 236.01,57.61 C236.70,58.67 237.02,60.01 237.94,60.88 Z" fill="none" stroke="rgb(255, 118, 118)" stroke-width="13.77" stroke-opacity="1.00" stroke-linejoin="round"/>
</g>
</svg>
