<svg width="56" height="49" viewBox="0 0 56 49" fill="none" xmlns="http://www.w3.org/2000/svg">
<path fill-rule="evenodd" clip-rule="evenodd" d="M28 29.0755C25.0682 32.7086 20.7788 35 16 35C7.16344 35 0 27.165 0 17.5C0 7.83502 7.16344 0 16 0C20.7788 0 25.0682 2.29143 28 5.92452C30.9318 2.29143 35.2212 0 40 0C48.8366 0 56 7.83502 56 17.5C56 27.165 48.8366 35 40 35C35.2212 35 30.9318 32.7086 28 29.0755Z" fill="#FF7676"/>
<path fill-rule="evenodd" clip-rule="evenodd" d="M49.402 30.6752C49.7931 29.0136 50 27.281 50 25.5C50 24.655 49.9534 23.8208 49.8627 23H5.13732C5.04658 23.8208 5 24.655 5 25.5C5 26.6954 5.09323 27.8691 5.27281 29.0141C7.58113 32.0535 10.5074 35.0339 13.5421 37.7478C18.369 42.0646 23.525 45.7548 27.0523 47.9956C27.2012 47.9985 27.3504 48 27.5 48C28.0112 48 28.5184 47.983 29.0211 47.9494C32.5464 45.7042 37.6648 42.035 42.4587 37.7478C44.9381 35.5305 47.3452 33.1352 49.402 30.6752Z" fill="#FF7676"/>
<path d="M49.402 30.6752L49.7855 30.996L49.8615 30.9051L49.8886 30.7898L49.402 30.6752ZM49.8627 23L50.3596 22.9451L50.3105 22.5H49.8627V23ZM5.13732 23V22.5H4.68955L4.64035 22.9451L5.13732 23ZM5.27281 29.0141L4.77885 29.0916L4.79839 29.2162L4.87463 29.3166L5.27281 29.0141ZM13.5421 37.7478L13.8754 37.3751L13.5421 37.7478ZM27.0523 47.9956L26.7842 48.4177L26.9025 48.4928L27.0426 48.4955L27.0523 47.9956ZM29.0211 47.9494L29.0544 48.4483L29.1819 48.4398L29.2897 48.3711L29.0211 47.9494ZM42.4587 37.7478L42.1254 37.3751L42.4587 37.7478ZM49.5 25.5C49.5 27.2421 49.2976 28.9364 48.9153 30.5607L49.8886 30.7898C50.2885 29.0909 50.5 27.3198 50.5 25.5H49.5ZM49.3657 23.0549C49.4544 23.8576 49.5 24.6734 49.5 25.5H50.5C50.5 24.6366 50.4524 23.7841 50.3596 22.9451L49.3657 23.0549ZM5.13732 23.5H49.8627V22.5H5.13732V23.5ZM5.5 25.5C5.5 24.6734 5.54557 23.8576 5.63429 23.0549L4.64035 22.9451C4.5476 23.7841 4.5 24.6366 4.5 25.5H5.5ZM5.76678 28.9367C5.5912 27.8172 5.5 26.6694 5.5 25.5H4.5C4.5 26.7215 4.59526 27.9211 4.77885 29.0916L5.76678 28.9367ZM13.8754 37.3751C10.855 34.674 7.95356 31.7172 5.671 28.7117L4.87463 29.3166C7.20869 32.3898 10.1597 35.3938 13.2088 38.1205L13.8754 37.3751ZM27.3204 47.5736C23.8123 45.345 18.6789 41.6709 13.8754 37.3751L13.2088 38.1205C18.0591 42.4583 23.2376 46.1646 26.7842 48.4177L27.3204 47.5736ZM27.5 47.5C27.3537 47.5 27.2077 47.4986 27.0621 47.4957L27.0426 48.4955C27.1947 48.4985 27.3472 48.5 27.5 48.5V47.5ZM28.9878 47.4505C28.4962 47.4833 28.0001 47.5 27.5 47.5V48.5C28.0223 48.5 28.5406 48.4826 29.0544 48.4483L28.9878 47.4505ZM42.1254 37.3751C37.3548 41.6415 32.2587 45.2946 28.7525 47.5277L29.2897 48.3711C32.834 46.1138 37.9748 42.4286 42.792 38.1205L42.1254 37.3751ZM49.0184 30.3545C46.9812 32.791 44.5924 35.1689 42.1254 37.3751L42.792 38.1205C45.2839 35.892 47.7091 33.4794 49.7855 30.996L49.0184 30.3545Z" fill="#FF7676"/>
</svg>
