<?xml version="1.0" encoding="UTF-8" standalone="no"?>
<!DOCTYPE svg PUBLIC "-//W3C//DTD SVG 1.1//EN" "http://www.w3.org/Graphics/SVG/1.1/DTD/svg11.dtd">

<svg width="57.00" height="50.04" viewBox="0.00 0.00 475.00 417.00" xmlns="http://www.w3.org/2000/svg" xmlns:xlink="http://www.w3.org/1999/xlink">
<g stroke-linecap="round" transform="translate(-1.00, -1.00)" id="like_heart_blank">
<path d="M238.94,61.88 C239.20,62.11 241.60,58.25 245.11,54.27 C250.72,48.10 264.50,33.39 267.74,30.43 C274.02,24.74 284.98,17.30 291.03,14.80 C297.27,12.25 310.63,8.61 318.87,7.79 C325.20,7.18 341.77,7.74 349.82,8.62 C358.11,9.55 373.77,13.02 381.00,15.75 C388.31,18.54 401.71,25.66 408.12,29.84 C415.19,34.48 425.20,43.40 429.67,48.56 C433.72,53.26 443.87,67.58 446.51,72.44 C449.68,78.39 457.52,94.56 459.04,98.35 C461.90,105.55 465.88,120.45 467.10,128.60 C468.06,135.58 469.15,151.65 469.13,158.76 C469.08,166.75 466.70,182.61 464.37,190.53 C462.41,197.09 455.85,211.48 451.88,218.28 C447.99,224.89 438.22,238.45 433.42,245.01 C428.76,251.08 417.62,265.29 414.66,268.72 C404.15,280.73 383.86,301.08 372.54,311.67 C365.24,318.31 336.94,342.17 324.38,352.60 C312.29,362.34 285.53,383.09 271.48,393.28 C264.84,397.95 253.63,405.45 249.07,408.28 C246.56,409.85 240.07,411.70 237.55,411.24 C232.16,410.10 220.11,401.76 214.72,398.06 C200.43,388.00 175.39,370.16 159.55,357.94 C146.98,348.10 119.93,325.77 111.02,317.56 C99.71,306.72 71.78,277.81 66.68,271.90 C61.71,266.04 51.71,254.02 46.67,247.85 C39.88,239.27 32.29,228.56 28.37,222.02 C23.91,214.52 17.75,200.91 15.23,193.44 C12.70,185.88 9.22,170.28 8.27,162.76 C7.39,155.58 7.10,141.33 8.28,132.96 C9.39,125.30 13.43,111.26 16.50,103.67 C19.27,96.90 25.85,84.15 31.07,76.49 C35.55,69.95 45.85,57.15 51.25,51.34 C55.85,46.42 66.93,36.24 74.27,31.36 C80.53,27.23 93.98,20.80 100.56,18.34 C107.54,15.77 123.28,12.19 131.41,11.21 C135.45,10.74 142.75,10.32 146.75,10.34 C154.10,10.42 167.14,13.56 177.04,17.17 C183.69,19.71 199.50,27.21 202.69,29.09 C209.12,32.91 220.57,42.32 227.90,49.39 C230.57,52.05 237.01,58.61 237.01,58.61 C237.70,59.67 238.02,61.01 238.94,61.88 Z" fill="none" stroke="rgb(255, 118, 118)" stroke-width="13.77" stroke-opacity="1.00" stroke-linejoin="round"/>
<path d="M239.72,157.26 C239.72,157.26 277.41,120.16 277.41,120.16 C277.41,120.16 295.63,93.31 295.63,93.31 C295.63,93.31 324.33,83.96 324.33,83.96 C324.33,83.96 363.59,89.89 363.59,89.89 C363.59,89.89 396.52,141.90 396.52,141.90 C396.52,141.90 386.19,182.85 386.19,182.85 C386.19,182.85 372.48,197.30 372.48,197.30 C372.48,197.30 356.66,213.59 356.66,213.59 C356.66,213.59 349.35,222.72 349.35,222.72 C349.35,222.72 317.30,257.67 317.30,257.67 C314.29,257.21 304.70,255.74 302.28,255.98 C300.23,256.22 297.02,257.98 295.63,259.50 C293.83,261.58 291.88,268.77 291.69,274.15 C291.63,278.47 291.52,285.64 291.48,288.48 C291.48,288.48 241.77,330.97 241.77,330.97 C241.77,330.97 173.96,276.56 173.96,276.56 C173.96,276.56 145.44,243.59 145.44,243.59 C145.44,243.59 123.96,219.15 123.96,219.15 C123.96,219.15 86.19,166.76 86.19,166.76 C86.19,166.76 87.67,129.52 87.67,129.52 C87.67,129.52 129.34,84.54 129.34,84.54 C129.34,84.54 167.30,94.33 167.30,94.33 C167.30,94.33 193.59,117.67 193.59,117.67 C193.59,117.67 239.72,157.26 239.72,157.26 Z" fill="none" stroke="rgb(255, 118, 118)" stroke-width="148.15" stroke-opacity="1.00" stroke-linejoin="round"/>

</g>
</svg>
