<?xml version="1.0" encoding="UTF-8" standalone="no"?>
<!DOCTYPE svg PUBLIC "-//W3C//DTD SVG 1.1//EN" "http://www.w3.org/Graphics/SVG/1.1/DTD/svg11.dtd">
<svg width="57.12" height="50.16" viewBox="0.00 0.00 476.00 418.00" xmlns="http://www.w3.org/2000/svg" xmlns:xlink="http://www.w3.org/1999/xlink">
<g stroke-linecap="round" transform="translate(-272.00, -156.00)">
<path d="M510.94,217.88 C511.20,218.11 513.60,214.25 517.11,210.27 C522.72,204.10 536.50,189.39 539.74,186.43 C546.02,180.74 556.98,173.30 563.03,170.80 C569.27,168.25 582.63,164.61 590.87,163.79 C597.20,163.18 613.77,163.74 621.82,164.62 C630.11,165.55 645.77,169.02 653.00,171.75 C660.31,174.54 673.71,181.66 680.12,185.84 C687.19,190.48 697.20,199.40 701.67,204.56 C705.72,209.26 715.87,223.58 718.51,228.44 C721.68,234.39 729.52,250.56 731.04,254.35 C733.90,261.55 737.88,276.45 739.10,284.60 C740.06,291.58 741.15,307.65 741.13,314.76 C741.08,322.75 738.70,338.61 736.37,346.53 C734.41,353.09 727.85,367.48 723.88,374.28 C719.99,380.89 710.22,394.45 705.42,401.01 C700.76,407.08 689.62,421.29 686.66,424.72 C676.15,436.73 655.86,457.08 644.54,467.67 C637.24,474.31 608.94,498.17 596.38,508.60 C584.29,518.34 557.53,539.09 543.48,549.28 C536.84,553.95 525.63,561.45 521.07,564.28 C518.56,565.85 512.07,567.70 509.55,567.24 C504.16,566.10 492.11,557.76 486.72,554.06 C472.43,544.00 447.39,526.16 431.55,513.94 C418.98,504.10 391.93,481.77 383.02,473.56 C371.71,462.72 343.78,433.81 338.68,427.90 C333.71,422.04 323.71,410.02 318.67,403.85 C311.88,395.27 304.29,384.56 300.37,378.02 C295.91,370.52 289.75,356.91 287.23,349.44 C284.70,341.88 281.22,326.28 280.27,318.76 C279.39,311.58 279.10,297.33 280.28,288.96 C281.39,281.30 285.43,267.26 288.50,259.67 C291.27,252.90 297.85,240.15 303.07,232.49 C307.55,225.95 317.85,213.15 323.25,207.34 C327.85,202.42 338.93,192.24 346.27,187.36 C352.53,183.23 365.98,176.80 372.56,174.34 C379.54,171.77 395.28,168.19 403.41,167.21 C407.45,166.74 414.75,166.32 418.75,166.34 C426.10,166.42 439.14,169.56 449.04,173.17 C455.69,175.71 471.50,183.21 474.69,185.09 C481.12,188.91 492.57,198.32 499.90,205.39 C502.57,208.05 508.88,214.42 509.01,214.61 C509.70,215.67 510.02,217.01 510.94,217.88 Z" fill="rgb(255, 118, 118)" stroke="rgb(255, 118, 118)" stroke-width="13.77" stroke-opacity="1.00" stroke-linejoin="round"/>
</g>
</svg>
