<?xml version="1.0" encoding="UTF-8" standalone="no"?>
<!DOCTYPE svg PUBLIC "-//W3C//DTD SVG 1.1//EN" "http://www.w3.org/Graphics/SVG/1.1/DTD/svg11.dtd">
<svg width="317.25" height="459.00" viewBox="0.00 0.00 423.00 612.00" xmlns="http://www.w3.org/2000/svg" xmlns:xlink="http://www.w3.org/1999/xlink">
<defs>
		<style type="text/css">
			.land:hover
			{
				fill: #FF8C8C;
				fill-opacity: 1;
                stroke: #B93C3C;
                transform: translate(10px, -15px);
			}
		</style>
	</defs>
<g stroke-linecap="round" id="강원도" >
<path title="gangwon" class="land" d="M287.09,205.22 C286.87,203.94 284.67,202.75 282.32,202.21 C280.98,201.92 276.03,200.65 275.23,200.13 C274.08,199.35 274.24,197.50 275.18,196.22 C275.87,195.30 277.58,193.03 277.70,192.41 C277.91,191.18 276.92,189.57 275.78,189.14 C275.78,189.14 269.73,186.90 267.61,185.28 C266.17,184.10 264.53,181.91 264.58,180.66 C264.64,179.38 267.17,174.24 267.19,174.05 C267.32,172.88 265.06,171.93 262.56,171.76 C259.53,171.57 256.99,170.85 256.64,169.81 C256.43,169.07 259.28,165.30 260.05,164.20 C261.07,162.72 261.06,160.67 260.02,159.95 C259.15,159.38 255.42,157.86 253.99,156.66 C253.36,156.13 241.39,141.06 235.90,133.73 C230.58,126.41 221.36,111.34 217.95,104.03 C214.47,96.53 205.79,66.89 206.00,65.92 C206.34,64.13 206.19,63.84 203.69,61.42 C201.09,59.00 199.29,58.37 197.78,59.42 C197.30,59.77 195.21,62.64 194.40,63.12 C192.73,64.11 190.17,63.29 189.52,61.63 C189.18,60.66 192.81,52.97 192.62,52.63 C191.66,50.97 187.80,49.80 184.01,49.14 C182.79,48.92 178.17,48.08 177.70,47.76 C176.49,46.91 176.40,44.00 176.36,43.25 C176.30,42.26 175.95,41.64 175.32,41.38 C175.14,41.31 169.99,41.48 168.84,40.96 C167.69,40.44 166.14,37.95 165.21,35.72 C163.72,31.87 163.08,25.51 162.31,24.56 C161.55,23.67 158.08,22.50 156.53,22.54 C155.06,22.63 152.19,24.03 151.37,25.08 C150.43,26.39 150.14,29.54 150.74,31.24 C151.13,32.29 153.63,34.95 154.23,35.79 C155.11,37.03 156.02,40.25 156.00,42.14 C155.95,43.70 155.08,47.98 154.51,48.64 C153.60,49.63 151.34,49.88 149.75,49.32 C147.58,48.58 145.10,47.94 144.38,48.52 C143.58,49.19 142.51,53.29 142.26,54.01 C141.79,55.33 140.11,56.20 138.03,56.31 C136.45,56.36 135.60,56.53 135.47,56.81 C135.31,57.15 135.45,58.22 135.87,60.01 C136.88,62.71 137.95,66.45 137.64,67.42 C137.29,68.42 134.07,68.30 131.96,67.55 C130.03,66.80 127.02,64.73 126.33,63.53 C125.72,62.39 125.50,58.78 125.86,57.58 C126.76,54.58 126.59,53.06 125.03,52.39 C124.35,52.10 121.61,51.96 121.47,50.95 C121.38,50.14 125.93,39.62 126.02,35.87 C126.02,34.23 124.16,31.32 122.88,31.17 C122.02,31.11 117.41,34.41 116.68,35.22 C115.83,36.23 115.69,38.18 115.90,41.38 C116.21,45.08 116.53,52.81 116.33,53.28 C116.06,53.82 114.13,51.31 113.53,50.54 C112.55,49.32 110.44,48.11 109.53,48.55 C108.83,48.91 105.31,53.14 104.77,53.60 C103.67,54.54 100.30,55.51 99.51,55.86 C97.69,56.66 97.07,58.12 97.62,60.12 C97.98,61.41 98.02,62.21 97.75,62.53 C97.04,63.39 96.09,63.53 94.91,62.96 C93.89,62.46 93.48,61.02 92.41,60.63 C92.23,60.56 86.54,66.83 84.62,67.78 C83.68,68.23 78.18,69.69 78.33,70.22 C78.45,70.60 82.41,73.80 82.61,74.35 C82.72,74.64 80.79,77.71 80.69,78.84 C80.65,79.33 83.72,88.01 85.85,92.99 C88.15,98.23 89.74,100.81 91.77,100.80 C92.79,100.79 97.01,100.56 98.02,100.97 C98.71,101.25 101.84,104.15 102.62,104.36 C103.59,104.62 107.84,103.55 108.89,103.36 C110.08,103.15 111.96,103.67 112.75,104.41 C114.29,105.95 116.66,112.32 117.39,115.50 C117.83,117.32 119.11,118.21 120.24,117.39 C120.38,117.28 122.74,113.53 123.69,112.79 C124.63,112.05 126.91,111.90 127.62,112.43 C128.95,113.59 127.58,118.79 127.50,119.97 C127.44,121.05 127.74,121.71 128.39,121.93 C129.09,122.14 133.37,120.24 135.50,119.25 C137.72,118.27 140.23,118.38 140.70,119.54 C141.29,121.32 136.34,126.77 136.16,127.42 C135.98,128.17 139.77,130.76 141.01,131.60 C141.46,131.90 146.55,135.85 147.15,136.37 C149.09,138.08 150.93,140.71 151.12,142.22 C151.26,143.74 149.99,146.27 148.39,147.95 C148.08,148.27 141.00,154.92 140.87,155.85 C140.60,157.89 140.73,159.09 141.23,159.43 C142.31,160.16 143.84,158.95 145.11,159.21 C146.45,159.49 146.11,161.79 144.96,163.80 C144.09,165.31 143.93,167.31 144.74,168.05 C145.69,168.81 147.41,168.42 150.07,167.05 C152.36,165.86 154.08,166.02 154.93,167.52 C155.10,167.86 155.37,168.56 155.73,169.63 C154.23,171.86 153.13,174.48 153.78,175.07 C154.27,175.48 160.42,173.59 160.79,173.55 C162.61,173.38 164.96,175.12 165.44,176.81 C166.15,179.76 165.54,189.62 164.76,192.82 C164.16,195.18 161.29,202.09 160.02,203.75 C158.88,205.27 158.33,207.22 158.63,208.96 C158.74,209.52 160.86,212.20 161.81,213.41 C162.91,214.61 165.19,215.72 166.56,215.59 C167.73,215.43 170.70,213.32 172.14,211.81 C173.77,210.07 175.53,206.69 176.20,205.80 C177.05,204.73 178.73,204.92 180.00,206.15 C180.84,206.98 183.67,210.01 184.51,210.55 C185.73,211.29 187.16,211.23 189.01,210.42 C190.42,209.80 194.84,208.20 196.16,207.98 C197.45,207.79 200.80,208.21 201.73,208.62 C203.09,209.30 203.92,210.96 203.39,212.16 C203.01,213.01 200.95,216.10 201.11,216.85 C201.27,217.53 204.14,218.68 205.09,218.57 C205.95,218.47 209.44,217.29 210.40,217.75 C211.34,218.17 211.86,219.31 212.83,219.65 C214.03,220.10 216.44,217.44 217.27,217.19 C218.55,216.78 221.53,219.35 222.29,219.95 C222.91,220.44 225.82,220.72 226.67,220.46 C227.15,220.31 230.39,218.35 231.05,218.31 C231.96,218.25 234.23,219.97 234.90,220.23 C235.91,220.63 236.83,220.69 237.66,220.42 C238.59,220.11 241.75,217.54 242.93,217.53 C244.12,217.51 247.20,219.94 248.07,220.29 C249.11,220.72 251.64,219.33 252.32,218.94 C253.82,218.08 255.94,218.01 258.76,218.62 C261.48,219.21 263.39,218.97 265.41,217.79 C267.42,216.60 268.91,216.32 270.74,216.84 C273.48,217.62 275.25,217.94 276.68,217.62 C278.38,217.21 281.06,215.47 282.38,213.97 C283.19,213.01 286.10,209.27 286.39,208.66 C286.98,207.28 287.22,206.13 287.09,205.22 Z" 
fill="#CAF4FF" stroke="rgb(54, 108, 125)" stroke-width="3.09" stroke-opacity="1.00" stroke-linejoin="round"/>
</g>
<g stroke-linecap="round" id="경기도">
<path title="gyeonggi" class="land" d="M159.35,204.85 C159.09,205.72 158.82,209.05 158.09,209.83 C157.48,210.48 152.69,212.74 151.39,213.41 C149.37,214.47 147.78,216.55 147.70,218.21 C147.67,219.17 147.68,222.50 146.51,224.07 C145.64,225.17 144.85,225.70 144.15,225.63 C143.05,225.52 142.27,224.42 141.22,224.12 C139.21,223.57 136.17,224.69 134.56,226.45 C131.68,229.73 125.27,237.67 123.44,238.25 C122.12,238.62 121.08,238.51 120.32,237.93 C119.27,237.12 117.00,233.16 115.56,232.76 C114.15,232.37 110.15,234.49 108.95,235.10 C107.26,235.96 104.66,235.88 103.65,234.94 C102.95,234.27 100.74,231.80 99.22,231.67 C97.83,231.57 89.53,234.72 88.86,234.17 C88.08,233.52 87.35,227.32 87.06,226.99 C86.49,226.29 80.81,225.86 80.61,225.36 C80.46,225.00 82.83,219.77 82.68,219.07 C82.55,218.47 78.57,219.16 77.43,219.36 C75.64,219.66 73.68,219.05 73.33,217.94 C73.22,217.54 73.61,211.37 73.74,210.82 C74.29,208.62 76.01,206.86 77.45,206.98 C78.41,207.07 81.71,207.44 83.13,206.89 C85.66,205.86 88.97,201.15 88.59,200.75 C88.01,200.22 75.80,201.29 74.79,200.08 C74.02,198.97 80.18,193.46 80.27,193.07 C80.46,192.35 80.05,189.08 80.67,187.73 C81.15,186.68 85.02,182.90 86.02,181.77 C87.09,180.55 87.63,179.49 87.66,178.57 C87.72,176.55 85.05,171.72 84.51,171.92 C84.51,171.93 87.48,177.03 87.66,178.13 C87.85,179.19 86.04,182.18 86.05,182.48 C86.07,183.36 88.33,185.51 89.22,185.44 C89.63,185.41 92.41,183.56 92.84,183.97 C93.11,184.22 94.99,189.24 95.61,189.36 C96.10,189.46 100.39,185.76 101.38,185.65 C102.51,185.51 107.77,188.78 107.82,188.80 C108.71,189.10 109.84,187.55 110.33,185.88 C110.65,184.74 112.02,180.14 112.68,179.23 C113.17,178.54 116.11,176.74 116.42,176.20 C116.99,175.17 116.71,171.57 115.85,170.98 C115.43,170.69 110.99,170.29 110.69,169.65 C110.28,168.83 112.15,163.09 112.07,162.67 C111.82,161.23 111.06,160.51 109.81,160.50 C109.18,160.52 106.57,163.47 105.43,164.67 C105.43,164.67 102.71,159.38 102.71,159.38 C101.49,160.37 99.98,162.37 99.51,163.95 C99.26,164.73 99.24,167.93 98.87,167.98 C98.21,168.04 94.01,164.54 93.99,164.54 C93.02,164.18 86.02,170.17 84.83,170.25 C83.56,170.29 76.70,165.70 75.75,164.78 C74.29,163.29 73.80,160.41 74.61,158.35 C76.09,154.82 80.50,147.36 80.01,147.45 C79.10,147.60 75.24,149.38 74.66,148.97 C74.36,148.78 73.56,144.66 73.02,144.59 C72.52,144.53 69.23,148.32 68.24,149.36 C66.62,151.04 63.68,151.63 61.54,150.71 C59.91,149.97 55.35,146.06 53.21,143.70 C51.83,142.16 50.97,140.01 50.77,137.43 C50.62,135.10 51.91,127.33 53.09,122.26 C53.57,120.32 54.17,119.75 54.84,120.82 C55.43,121.77 57.70,124.81 60.07,125.83 C61.33,126.35 62.48,126.64 63.52,126.72 C65.00,126.77 65.97,125.10 65.77,123.26 C65.61,122.02 63.83,117.15 63.76,116.57 C63.58,115.00 64.97,112.54 66.33,111.77 C67.74,111.04 71.24,110.10 73.16,109.90 C74.97,109.77 78.43,110.44 79.87,111.27 C80.43,111.60 83.87,114.58 84.72,114.99 C86.05,115.59 87.61,114.94 87.78,113.49 C87.93,112.29 88.45,107.67 89.74,106.60 C90.81,105.76 101.94,106.28 104.85,104.91 C105.62,104.54 107.82,103.46 109.79,103.40 C111.54,103.39 112.87,104.30 113.94,106.18 C115.03,108.19 118.02,117.71 118.10,117.89 C118.58,118.90 119.68,118.32 121.09,116.46 C123.74,112.95 126.21,111.46 126.74,111.91 C127.86,112.95 128.65,115.33 128.27,116.76 C127.80,118.58 127.46,122.10 128.06,122.53 C128.79,122.99 138.50,117.69 139.67,118.15 C140.50,118.56 140.90,121.45 140.05,122.38 C139.22,123.30 137.89,123.69 137.08,124.62 C135.97,125.93 136.48,127.99 137.97,129.23 C141.46,131.98 147.91,136.55 149.49,138.74 C150.35,140.01 150.95,142.68 150.61,143.99 C150.05,145.85 142.65,152.46 141.88,153.78 C140.99,155.39 140.51,156.71 140.45,157.74 C140.42,158.85 140.87,159.54 141.81,159.81 C142.72,160.08 146.25,159.56 146.62,160.27 C146.91,160.83 145.03,165.13 144.63,166.39 C144.16,167.92 145.21,168.97 146.71,168.48 C147.96,168.06 152.22,166.07 153.12,166.12 C154.49,166.25 155.49,168.36 155.01,170.14 C154.70,171.29 153.52,175.11 154.33,175.46 C154.98,175.72 160.76,173.53 161.38,173.51 C163.04,173.46 165.12,175.71 165.50,177.52 C166.11,181.03 165.44,191.75 164.74,194.42 C163.61,198.65 159.61,203.94 159.35,204.85 Z" 
fill="#9BEAFF" stroke="rgb(54, 108, 125)" stroke-width="3.45" stroke-opacity="1.00" stroke-linejoin="round"/>
</g>
<g stroke-linecap="round" id="서울특별시">
<path title="seoul" class="land" d="M88.22,169.13 C89.89,167.36 92.35,165.10 93.31,164.75 C94.33,164.40 95.59,165.38 96.69,166.82 C97.68,168.13 98.33,168.72 98.62,168.60 C98.97,168.45 99.95,162.56 100.50,161.64 C101.45,159.99 102.31,159.36 103.07,159.75 C103.40,159.93 103.73,160.97 104.06,162.85 C105.47,164.22 106.40,164.30 107.43,162.83 C108.49,161.36 110.91,160.40 111.92,161.32 C112.70,162.07 111.36,165.57 111.02,166.37 C110.57,167.40 110.58,170.16 111.24,170.52 C111.64,170.73 116.06,170.53 116.48,170.98 C117.04,171.60 116.04,175.43 115.18,176.73 C114.52,177.70 112.19,179.23 112.00,179.59 C111.40,180.70 110.91,184.75 110.62,185.57 C110.03,187.18 109.39,188.26 108.68,188.80 C107.84,189.41 101.81,185.46 100.90,185.80 C100.10,186.09 96.92,189.07 96.57,189.14 C96.24,189.20 95.63,188.95 94.74,188.39 C94.23,186.92 92.82,183.56 92.11,183.53 C90.93,183.47 90.38,185.24 89.28,185.68 C88.72,185.91 86.17,183.03 86.13,182.49 C86.11,182.20 87.41,178.91 87.50,177.77 C87.63,176.25 87.07,174.90 85.79,173.37 C85.13,172.57 84.82,172.00 84.88,171.66 C84.99,171.06 86.79,169.86 88.22,169.13 Z" 
fill="#00B6E6" stroke="rgb(54, 108, 125)" stroke-width="3.09" stroke-opacity="1.00" stroke-linejoin="round"/>
</g>
<g stroke-linecap="round" id="인천광역시">
<path title="incheon" class="land" d="M78.26,167.30 C76.09,165.46 73.83,163.01 73.63,161.73 C73.44,160.23 77.46,153.34 78.18,151.25 C78.39,150.54 78.56,149.81 78.79,149.11 C78.83,148.99 76.14,149.54 75.18,149.11 C74.39,148.78 72.85,145.25 72.63,145.19 C71.95,145.02 66.18,151.31 65.02,151.48 C63.95,151.61 60.19,150.29 59.22,149.42 C58.28,148.56 57.70,147.22 56.54,146.71 C56.05,146.52 54.05,148.35 52.81,149.32 C50.73,151.08 49.45,152.71 48.85,154.51 C47.88,157.66 50.35,170.34 51.09,173.04 C53.40,173.48 54.70,173.32 57.08,172.16 C59.04,171.25 61.94,170.70 63.38,171.18 C64.79,171.69 67.05,173.66 67.95,175.04 C69.34,177.43 71.04,180.30 71.97,181.68 C69.88,180.38 68.11,179.70 66.00,179.59 C63.84,179.50 61.17,179.94 59.90,180.66 C58.69,181.39 57.67,182.93 57.35,184.34 C57.12,185.70 58.57,187.70 59.99,187.80 C60.45,187.82 63.92,185.67 65.08,185.36 C66.31,185.04 68.86,185.70 69.52,186.53 C70.06,187.24 70.53,189.29 70.72,190.75 C71.69,192.40 73.27,194.67 74.10,195.28 C74.89,195.83 77.64,195.99 78.31,195.34 C79.49,194.10 80.26,192.10 80.34,190.31 C80.42,188.32 81.15,186.43 82.25,185.49 C84.22,183.82 86.48,180.87 87.09,178.46 C87.38,177.11 87.02,176.05 85.77,174.47 C83.72,171.98 79.26,168.15 78.26,167.30 Z" 
fill="#52DBFF" stroke="rgb(54, 108, 125)" stroke-width="2.82" stroke-opacity="1.00" stroke-linejoin="round"/>
</g>
<g stroke-linecap="round" id="충청북도">
<path title="chungbuk" class="land" d="M174.87,312.52 C174.77,313.44 176.25,316.53 176.26,316.55 C176.73,318.66 176.16,321.52 174.91,322.31 C173.48,323.13 171.22,323.35 169.62,322.80 C168.59,322.44 165.05,321.31 163.48,321.35 C161.87,321.41 156.25,323.76 155.08,323.68 C153.14,323.50 149.67,321.52 148.99,320.07 C148.42,318.76 149.52,312.81 149.11,310.07 C148.78,308.24 148.32,306.61 147.80,305.89 C147.21,305.14 145.10,304.17 144.00,304.16 C143.11,304.14 139.70,304.42 139.17,303.84 C138.54,303.08 138.61,299.12 139.22,297.65 C139.66,296.63 142.49,293.37 142.64,293.15 C143.29,292.13 143.43,289.84 142.77,289.18 C142.33,288.75 138.31,287.03 137.74,286.57 C137.13,286.10 135.01,282.91 134.57,282.63 C134.13,282.34 131.04,282.01 130.42,281.66 C129.35,281.04 127.54,278.06 127.64,276.77 C127.72,275.87 129.86,271.55 129.86,271.08 C129.86,270.68 123.78,267.82 122.50,265.58 C121.98,264.60 121.99,262.43 122.48,261.38 C123.64,259.19 132.11,254.62 132.58,253.31 C132.83,252.49 131.34,250.49 129.59,248.62 C128.51,247.49 125.92,244.56 125.12,243.44 C124.19,242.10 123.57,239.91 123.82,238.79 C124.29,237.09 130.04,232.05 132.54,228.96 C134.52,226.51 136.08,224.80 137.02,224.19 C138.20,223.47 139.59,223.71 141.41,224.73 C143.05,225.64 144.96,225.59 146.26,224.47 C147.54,223.30 148.07,221.37 147.88,219.23 C147.71,217.22 148.39,215.59 149.98,214.46 C150.64,214.01 154.85,211.80 155.34,211.53 C156.90,210.71 158.65,210.71 160.09,211.69 C161.10,212.39 164.80,215.62 166.13,215.93 C167.47,216.20 169.94,214.48 171.44,212.66 C172.56,211.22 175.09,206.70 175.58,205.81 C177.09,204.63 178.05,204.60 179.34,206.00 C179.94,206.63 182.97,209.64 183.78,210.22 C185.10,211.14 187.85,211.52 189.18,210.96 C189.36,210.88 193.34,208.45 194.53,208.14 C196.08,207.76 200.02,207.80 201.21,208.34 C202.57,209.02 203.28,209.76 203.36,210.55 C203.37,210.63 201.14,216.94 201.89,217.85 C202.96,219.12 205.95,218.68 207.24,217.46 C208.23,216.52 209.39,216.77 211.00,218.15 C212.58,219.50 214.27,219.72 215.85,218.70 C217.87,217.42 219.33,217.39 221.27,218.80 C223.09,220.20 224.05,220.91 224.15,220.94 C225.17,221.24 226.39,220.48 227.34,220.97 C227.81,221.24 222.23,228.72 219.75,230.52 C218.72,231.26 214.87,233.21 214.52,233.45 C213.38,234.26 212.18,236.56 212.17,237.89 C212.18,238.88 212.62,242.34 212.22,243.53 C211.43,245.75 208.78,248.07 207.02,247.95 C206.03,247.86 203.20,244.86 202.40,244.01 C201.22,242.74 199.55,242.35 198.70,243.21 C198.05,243.90 196.26,246.66 194.80,247.68 C193.79,248.36 192.91,248.75 192.16,248.86 C191.10,248.96 188.60,247.82 187.53,246.90 C185.11,244.74 184.04,244.42 182.54,245.26 C182.57,248.13 182.84,255.91 182.83,256.88 C182.78,258.01 181.57,258.86 180.19,258.88 C178.72,258.83 177.11,257.87 176.54,256.74 C175.80,255.31 173.64,253.74 172.37,254.27 C171.37,254.73 170.79,255.77 170.65,257.41 C170.55,258.48 172.58,262.78 172.46,263.35 C172.10,265.02 162.90,269.05 162.69,269.47 C162.09,270.77 163.04,273.34 164.38,274.37 C165.81,275.41 167.94,275.23 168.70,275.17 C169.94,275.09 170.65,276.32 170.74,278.68 C170.85,282.99 170.36,292.62 169.26,295.05 C168.98,295.66 166.75,297.81 166.09,298.66 C165.30,299.71 165.98,300.51 167.86,300.67 C169.80,300.80 173.53,300.44 175.49,300.23 C177.92,300.08 181.08,301.01 182.90,302.46 C184.56,303.85 185.20,305.91 184.29,306.79 C182.85,308.06 178.53,308.67 176.91,308.82 C176.04,309.95 174.97,311.70 174.87,312.52 Z" 
fill="#60AEC3" stroke="rgb(54, 108, 125)" stroke-width="3.14" stroke-opacity="1.00" stroke-linejoin="round"/>
</g>
<g stroke-linecap="round" id="충청남도">
<path title="chungnam" class="land" d="M76.17,330.61 C75.56,330.65 72.79,326.43 72.36,326.05 C71.79,325.49 67.55,323.46 67.11,322.82 C66.64,322.16 66.09,317.69 65.89,317.24 C65.51,316.39 56.74,313.35 56.71,311.90 C56.71,311.43 60.29,307.96 60.43,307.03 C60.58,306.13 58.14,300.71 58.19,299.96 C58.26,298.84 60.39,297.03 62.05,296.01 C59.54,294.40 54.16,291.65 54.63,290.86 C54.69,290.77 59.72,287.21 60.31,286.18 C60.76,285.36 58.63,282.64 58.10,281.79 C57.23,280.41 56.42,276.66 56.50,274.36 C56.55,272.80 56.71,267.72 55.93,266.92 C55.15,266.21 51.86,267.19 50.34,268.46 C49.02,269.66 48.29,272.67 48.89,274.41 C48.94,274.55 51.66,279.96 51.96,281.49 C52.29,283.28 52.29,284.67 51.97,285.64 C51.40,287.14 48.97,287.44 47.24,286.41 C45.17,285.08 42.65,282.68 42.03,281.29 C41.41,279.82 41.61,277.68 42.37,275.31 C42.76,274.15 43.76,270.16 43.88,268.81 C44.01,266.96 42.82,263.50 41.51,261.83 C40.48,260.58 39.65,260.00 39.02,260.07 C38.47,260.15 35.92,264.19 35.15,264.35 C34.02,264.60 30.17,261.59 29.56,260.17 C29.15,259.08 30.06,257.02 31.41,254.99 C33.77,251.55 35.36,246.58 35.60,242.23 C35.64,241.54 35.67,240.86 35.71,240.17 C39.74,242.44 44.57,244.80 48.05,244.60 C49.97,244.45 52.42,242.31 52.88,240.54 C53.16,239.24 52.96,238.36 52.31,237.91 C51.62,237.46 45.55,237.46 45.00,237.20 C43.90,236.69 44.71,233.86 46.07,232.48 C46.82,231.75 49.63,230.43 51.16,229.90 C53.40,229.16 57.87,230.76 58.35,230.36 C59.24,229.64 61.45,225.68 62.39,225.49 C63.31,225.32 69.42,234.24 70.86,235.58 C72.09,236.67 73.74,236.19 75.52,234.54 C77.48,232.70 79.37,231.90 81.28,232.27 C82.47,232.53 86.11,234.06 86.43,234.16 C88.64,234.79 94.86,232.34 97.00,231.25 C97.47,231.01 99.12,231.20 100.51,232.40 C100.68,232.54 105.04,236.45 105.96,236.73 C106.91,236.98 108.52,236.40 109.49,235.50 C111.19,233.97 113.62,232.53 114.78,232.67 C116.05,232.85 129.57,248.95 130.32,249.78 C131.62,251.26 132.38,253.30 131.92,254.46 C131.86,254.61 123.72,259.55 122.22,261.57 C121.46,262.67 121.47,264.95 122.18,266.05 C123.14,267.45 129.68,270.39 129.87,271.15 C130.02,271.78 127.43,276.10 127.40,276.78 C127.33,277.83 130.47,280.97 130.50,281.09 C130.81,282.12 130.54,282.95 129.70,283.57 C129.24,283.91 125.32,283.55 124.98,284.16 C124.38,285.22 124.92,286.77 124.17,287.74 C123.53,288.56 121.85,288.20 121.34,289.11 C120.77,290.13 121.70,291.50 121.38,292.63 C121.27,292.97 117.64,292.02 116.26,292.16 C114.66,292.30 110.97,294.18 110.81,295.00 C110.72,295.80 113.77,297.77 115.62,298.29 C116.89,298.65 121.70,299.59 122.18,300.22 C122.74,300.98 121.49,305.34 121.50,305.44 C121.65,306.75 123.79,308.42 125.03,308.31 C126.01,308.18 126.69,307.85 127.09,307.33 C127.85,306.33 129.51,302.08 130.07,302.01 C130.59,301.96 133.27,308.86 133.90,308.97 C134.54,309.06 138.75,305.28 139.01,305.13 C139.92,304.60 143.39,304.87 144.96,305.26 C146.59,305.75 148.47,307.68 148.98,309.47 C149.36,310.97 148.88,315.56 148.75,316.76 C148.51,318.91 149.16,320.45 150.68,321.81 C151.46,322.51 151.78,322.97 151.63,323.17 C151.38,323.48 146.20,324.89 145.50,325.26 C144.43,325.80 142.96,328.54 142.85,328.64 C141.35,329.91 138.86,330.45 137.80,329.69 C136.37,328.62 135.32,327.42 134.54,326.50 C133.07,324.96 125.56,323.47 125.22,322.92 C124.91,322.39 127.52,318.53 127.58,318.11 C127.71,317.26 125.53,315.93 123.83,315.52 C122.15,315.19 119.04,315.33 117.70,315.96 C115.99,316.79 109.75,322.76 108.60,322.59 C107.58,322.37 101.21,315.67 100.48,315.13 C99.25,314.26 96.42,313.68 94.80,313.97 C93.40,314.28 89.85,315.97 89.23,316.93 C88.44,318.15 86.86,323.88 86.61,324.18 C86.08,324.83 81.51,325.58 80.89,325.98 C80.21,326.38 76.75,330.57 76.17,330.61 Z" 
fill="#2AA1C0" stroke="rgb(54, 108, 125)" stroke-width="3.10" stroke-opacity="1.00" stroke-linejoin="round"/>
</g>
<g stroke-linecap="round" id="대전광역시">
<path title="daejeon" class="land" d="M124.12,287.34 C124.41,287.09 125.13,283.71 125.68,283.47 C126.23,283.21 129.41,284.68 129.73,284.43 C130.56,283.82 130.59,282.56 131.19,281.74 C131.35,281.52 133.49,282.29 133.97,282.68 C134.81,283.40 137.57,286.51 139.08,287.39 C139.87,287.87 142.84,288.79 143.10,289.34 C143.64,290.59 142.92,293.12 141.90,294.05 C141.00,294.86 139.17,297.65 138.77,299.10 C138.72,299.28 138.89,302.81 138.32,303.97 C137.63,305.31 134.28,308.43 133.46,308.47 C132.76,308.46 132.10,304.51 132.04,304.39 C131.37,303.09 130.62,302.38 129.79,302.26 C129.30,302.22 128.22,305.74 127.73,306.40 C126.84,307.59 125.93,308.34 124.99,308.66 C124.23,308.89 121.75,306.93 121.54,306.26 C121.30,305.41 122.44,302.06 122.43,301.94 C122.35,300.81 121.03,299.70 119.62,299.41 C118.68,299.24 116.89,298.69 114.48,297.84 C112.53,297.14 110.76,295.70 110.72,294.72 C110.73,294.24 113.45,292.99 114.44,292.84 C115.75,292.62 120.95,292.56 121.26,292.10 C121.85,291.17 121.02,289.77 121.55,288.81 C122.01,287.93 123.38,287.99 124.12,287.34 Z" 
fill="#007C9D" stroke="rgb(54, 108, 125)" stroke-width="3.15" stroke-opacity="1.00" stroke-linejoin="round"/>
</g>
<g stroke-linecap="round" id="경상북도">
<path title="gyeongbuk" class="land" d="M212.14,368.29 C210.89,368.39 208.13,367.60 207.16,366.78 C206.29,366.05 203.28,363.02 201.85,362.62 C200.64,362.30 192.52,365.26 190.76,364.23 C189.91,363.66 190.52,361.85 191.76,360.82 C193.87,359.03 194.80,357.45 194.39,355.79 C193.81,353.75 185.58,346.91 183.44,345.90 C181.53,345.02 178.09,344.37 176.61,344.16 C175.82,343.97 172.55,342.08 171.89,341.31 C170.90,340.11 169.78,336.79 169.59,334.73 C169.33,331.36 169.85,324.28 170.13,323.83 C170.60,323.12 173.92,322.97 173.93,322.97 C174.89,322.52 176.79,319.27 176.82,318.05 C176.82,317.20 174.97,314.24 174.90,314.05 C174.59,313.16 175.13,311.00 175.81,310.29 C176.68,309.45 184.08,306.93 184.73,305.88 C185.22,305.02 184.03,303.02 182.71,302.23 C180.60,301.04 166.06,300.37 165.69,299.95 C165.24,299.38 166.34,297.74 167.85,296.35 C169.67,294.67 170.74,288.98 170.83,284.02 C170.84,282.71 170.64,278.07 170.35,277.38 C169.72,276.04 166.98,275.27 166.20,275.11 C165.57,274.97 162.68,273.47 162.39,272.80 C161.95,271.69 161.89,270.65 162.21,269.69 C162.41,269.15 165.69,267.82 166.59,267.50 C169.39,266.46 172.14,264.97 172.36,263.85 C172.53,263.00 170.20,257.65 170.27,256.94 C170.39,255.71 173.75,254.10 174.86,254.52 C175.50,254.78 177.37,258.07 177.87,258.42 C178.84,259.08 181.92,258.50 182.48,257.43 C182.96,256.46 182.64,252.33 182.46,250.53 C182.34,248.13 183.28,244.55 184.31,244.56 C185.04,244.59 189.01,247.99 189.62,248.26 C191.22,248.97 193.72,248.34 195.06,246.90 C196.31,245.46 198.84,242.60 199.66,242.41 C200.85,242.17 202.06,243.14 203.82,245.41 C204.60,246.42 206.52,247.74 207.49,247.77 C208.90,247.75 211.31,246.06 211.97,244.58 C212.38,243.60 212.07,239.67 212.14,238.57 C212.25,236.98 213.78,234.36 215.17,233.39 C216.21,232.68 219.93,230.61 221.59,229.04 C223.17,227.54 228.30,219.80 229.28,219.54 C230.67,219.18 234.86,220.83 236.02,220.71 C236.88,220.64 242.04,217.38 242.95,217.38 C243.89,217.36 248.48,220.47 249.21,220.55 C250.07,220.65 254.50,218.16 255.27,218.08 C256.13,217.97 261.39,219.47 262.21,219.32 C262.70,219.24 266.85,216.44 267.97,216.20 C268.92,215.99 272.43,217.48 273.44,217.75 C274.89,218.14 277.71,217.55 278.98,216.61 C279.89,215.95 282.84,213.29 283.88,213.26 C285.61,213.26 288.83,215.64 288.70,217.05 C288.62,217.90 285.55,221.51 285.81,221.68 C286.68,222.27 287.91,221.54 288.96,221.66 C290.48,221.84 291.57,222.33 292.23,223.12 C292.89,223.92 289.84,235.53 290.08,236.75 C290.47,238.57 293.76,241.65 294.66,242.54 C295.14,243.00 296.80,246.52 297.00,247.11 C297.51,248.78 297.56,251.85 297.11,254.06 C296.93,254.88 290.01,271.18 290.15,271.75 C290.42,272.69 291.11,273.34 292.21,273.70 C293.33,274.07 294.59,273.81 295.73,274.14 C297.19,274.55 298.00,277.02 297.48,278.56 C297.19,279.33 294.34,282.10 294.31,282.13 C292.10,284.56 290.45,292.45 290.15,296.67 C289.83,301.81 290.60,324.00 291.33,327.58 C291.75,329.51 292.84,331.37 293.55,331.36 C294.28,331.28 299.19,324.97 302.30,322.96 C303.74,322.06 304.74,321.61 305.31,321.59 C306.27,321.61 306.60,323.53 306.18,325.19 C305.35,328.24 302.04,337.08 301.05,340.49 C300.53,342.40 299.93,346.81 300.15,348.23 C300.24,348.78 301.98,351.96 302.04,353.22 C302.11,355.63 300.47,359.07 298.76,359.74 C297.77,360.10 294.05,358.81 292.24,358.14 C290.39,357.50 287.85,357.79 286.67,358.80 C286.00,359.40 284.24,361.78 283.13,362.29 C282.04,362.75 280.95,362.14 280.22,360.74 C279.20,358.77 278.16,357.34 276.90,356.43 C275.68,355.59 273.03,354.82 271.64,354.94 C270.10,355.13 268.00,356.55 266.86,358.13 C265.92,359.46 263.48,364.13 263.47,364.16 C262.39,365.80 260.22,366.54 257.86,366.13 C257.68,366.10 252.83,364.92 251.94,364.93 C251.24,364.95 250.52,365.14 249.79,365.49 C248.77,366.01 245.50,368.32 244.08,369.34 C242.29,370.55 235.95,371.15 232.29,371.01 C230.22,370.89 228.60,369.85 228.02,368.32 C227.11,365.81 226.64,365.22 223.98,363.41 C222.56,362.41 221.80,361.65 221.68,361.13 C221.49,360.14 224.31,357.20 226.29,355.85 C229.53,353.98 235.11,350.58 238.31,347.56 C240.30,345.61 241.00,343.15 241.44,338.32 C241.64,335.87 241.70,333.48 241.46,332.49 C241.10,331.21 239.19,329.53 237.53,328.94 C236.54,328.63 232.73,328.26 231.08,328.21 C229.21,328.20 225.99,328.86 224.56,329.60 C223.16,330.37 222.04,331.81 220.39,334.56 C219.30,336.35 217.92,336.98 216.32,336.44 C213.91,335.60 213.11,335.48 211.71,335.88 C210.50,336.26 208.76,338.36 208.78,339.57 C208.87,341.03 217.00,346.03 216.90,346.21 C216.64,346.60 212.55,347.60 210.69,348.04 C208.93,348.50 207.22,349.62 207.85,350.16 C208.04,350.32 213.16,352.72 213.31,353.29 C213.46,353.85 209.42,356.62 209.18,356.91 C208.40,357.87 209.94,359.60 211.86,360.15 C213.23,360.51 221.69,360.64 221.88,360.79 C222.08,361.03 217.81,362.18 217.43,362.66 C216.65,363.61 216.86,365.06 216.38,366.20 C216.05,366.98 213.16,368.15 212.14,368.29 Z" 
fill="#97BDC7" stroke="rgb(54, 108, 125)" stroke-width="3.30" stroke-opacity="1.00" stroke-linejoin="round"/>
</g>
<g stroke-linecap="round" id="대구광역시">
<path title="daegu" class="land" d="M210.70,354.99 C209.44,355.76 208.80,356.55 208.78,357.35 C208.79,358.39 209.46,359.30 210.78,360.07 C211.38,360.40 215.57,360.71 217.19,360.82 C220.01,360.84 221.30,360.36 223.23,358.55 C225.76,356.12 233.50,351.85 234.93,350.85 C237.52,349.01 240.57,344.91 241.31,341.58 C241.59,340.20 242.03,336.19 241.95,334.98 C241.74,332.78 240.33,330.48 238.57,329.58 C236.81,328.73 227.49,327.88 225.32,328.89 C224.26,329.42 222.10,332.74 221.45,333.74 C220.16,335.71 218.49,336.58 216.66,336.22 C213.92,335.65 212.34,335.60 210.71,336.25 C209.18,336.90 208.33,338.41 208.81,339.59 C209.22,340.49 210.92,342.41 211.85,343.12 C212.85,343.90 217.26,345.64 217.28,345.88 C217.30,346.17 216.34,346.71 214.40,347.50 C212.98,347.64 209.68,347.93 209.03,348.23 C207.63,348.87 207.11,349.50 207.49,350.11 C207.71,350.45 208.79,351.00 210.75,351.77 C212.87,352.65 214.05,353.20 214.30,353.41 C214.72,353.79 211.30,354.62 210.70,354.99 Z" 
fill="#5799A9" stroke="rgb(54, 108, 125)" stroke-width="3.10" stroke-opacity="1.00" stroke-linejoin="round"/>
</g>
<g stroke-linecap="round" id="울산광역시">
<path title="ulsan" class="land" d="M254.78,370.99 C255.04,370.21 257.65,367.81 258.77,367.45 C259.96,367.07 261.30,367.14 262.39,366.54 C262.95,366.23 264.14,362.52 264.75,361.26 C265.46,359.77 267.59,357.36 269.04,356.42 C270.74,355.39 273.62,354.83 274.92,355.41 C276.29,356.06 280.66,362.52 281.53,362.54 C282.69,362.54 286.01,358.83 287.11,358.07 C288.10,357.40 290.88,357.61 292.54,358.15 C293.72,358.59 298.73,360.48 298.91,360.92 C299.05,361.30 296.89,366.50 296.69,368.14 C296.51,369.47 297.47,374.04 297.57,375.20 C297.64,376.10 297.12,380.42 296.54,380.84 C295.44,381.56 294.35,381.62 293.26,381.03 C292.85,380.80 289.90,376.24 289.30,376.35 C288.74,376.49 287.84,381.15 288.14,382.47 C288.42,383.70 289.23,384.76 289.54,385.99 C289.75,386.85 288.48,389.60 287.90,390.08 C287.22,390.56 285.48,390.50 283.19,390.06 C280.21,389.39 277.08,388.26 276.56,387.23 C276.14,386.39 276.84,381.78 276.62,381.73 C276.34,381.66 272.04,385.16 271.29,385.45 C270.14,385.90 268.41,384.20 268.48,382.91 C268.55,381.79 270.46,377.64 270.27,377.34 C269.59,376.28 267.34,376.74 265.50,377.99 C264.27,378.80 262.25,378.35 260.38,376.86 C258.97,375.59 256.11,373.20 255.46,372.56 C254.90,371.97 254.67,371.45 254.78,370.99 Z" 
fill="#648188" stroke="rgb(54, 108, 125)" stroke-width="3.15" stroke-opacity="1.00" stroke-linejoin="round"/>
</g>
<g stroke-linecap="round" id="경상남도">
<path title="gyeongnam" class="land" d="M204.64,364.61 C203.97,364.08 201.73,362.11 201.01,362.13 C200.35,362.17 196.56,364.23 196.37,364.32 C193.78,365.39 190.40,364.14 190.30,363.25 C190.23,362.34 193.46,359.75 193.92,358.89 C194.65,357.49 193.99,354.84 192.61,353.31 C189.57,350.07 183.26,345.26 180.50,344.78 C179.59,344.62 176.40,344.64 175.54,344.02 C174.35,343.16 172.11,339.52 171.43,338.68 C170.70,337.78 168.81,337.85 167.59,338.60 C166.90,339.07 153.84,351.39 153.05,352.11 C151.75,353.32 150.45,355.51 150.23,357.05 C149.93,359.57 153.21,369.77 152.69,370.46 C152.40,370.82 147.50,373.15 147.13,373.91 C146.80,374.61 152.02,385.86 151.59,388.09 C151.13,390.14 149.40,391.65 146.03,393.38 C144.75,394.04 144.02,394.63 143.84,395.17 C143.52,396.17 146.05,399.39 147.43,400.98 C148.01,401.75 153.67,419.23 154.74,419.92 C154.98,420.08 159.88,421.60 160.40,422.31 C160.89,423.00 160.13,427.35 160.14,428.60 C160.16,430.17 161.46,432.55 162.63,433.35 C164.00,434.20 166.97,434.99 168.41,434.71 C169.89,434.39 173.04,432.38 174.48,430.93 C176.33,429.02 182.87,420.05 183.97,420.07 C184.71,420.19 184.91,422.19 184.56,425.36 C184.15,429.04 184.04,432.31 184.47,433.91 C185.10,436.07 187.21,438.12 189.18,438.50 C192.52,438.99 196.36,436.50 201.27,432.42 C202.85,430.75 205.13,428.93 205.82,429.38 C206.37,429.74 207.75,436.16 208.08,436.83 C208.75,438.17 211.48,439.04 212.46,438.47 C213.29,437.90 214.25,434.95 214.29,433.03 C214.31,431.42 213.89,427.72 213.53,425.22 C215.79,426.80 218.75,427.78 219.75,426.74 C220.44,426.01 220.20,419.33 220.23,417.47 C220.25,416.00 220.46,415.18 220.85,415.02 C221.58,414.79 226.36,422.93 227.04,422.69 C227.63,422.44 228.20,412.04 228.68,411.36 C229.18,410.76 231.11,414.36 231.99,415.34 C233.20,416.67 236.55,417.42 238.47,416.93 C240.29,416.41 243.44,414.94 246.10,413.45 C248.06,412.30 248.85,410.93 248.20,409.89 C248.03,409.63 247.55,409.24 246.79,408.72 C247.52,407.56 249.26,406.01 250.83,405.44 C251.20,405.31 259.91,404.67 260.19,404.04 C260.36,403.65 259.42,399.08 259.83,398.52 C260.33,397.84 269.58,397.77 270.03,397.23 C270.57,396.55 268.87,392.11 268.91,391.95 C269.09,391.23 274.49,389.06 274.66,388.96 C275.53,388.43 277.06,385.83 276.92,384.97 C276.62,383.50 276.13,382.67 275.45,382.48 C275.13,382.40 271.92,385.38 271.06,385.49 C270.25,385.60 267.96,383.46 268.18,382.51 C268.48,381.25 269.52,380.25 269.93,379.02 C270.26,378.04 268.78,375.80 268.14,375.96 C267.31,376.18 264.49,378.59 263.05,378.52 C262.01,378.46 258.44,375.85 256.88,374.35 C255.29,372.74 254.76,370.58 255.45,369.05 C255.74,368.41 256.47,367.84 256.36,367.14 C256.19,366.18 252.73,365.38 250.60,365.79 C249.24,366.07 240.14,371.35 237.25,371.78 C235.55,372.00 229.07,370.56 228.66,370.01 C228.05,369.18 227.47,366.32 226.36,365.28 C225.37,364.33 223.94,363.28 222.45,362.40 C221.29,361.79 218.42,361.43 217.62,362.24 C216.76,363.15 216.78,364.61 216.24,365.74 C215.97,366.30 213.37,368.07 212.90,368.18 C210.80,368.57 205.11,364.98 204.64,364.61 Z" 
fill="#3C7785" stroke="rgb(54, 108, 125)" stroke-width="3.10" stroke-opacity="1.00" stroke-linejoin="round"/>
</g>
<g stroke-linecap="round" id="울릉도">
<path d="M405.33,171.57 C404.86,171.66 403.04,173.79 402.62,173.89 C401.57,174.15 395.90,172.64 395.60,173.04 C395.03,173.85 394.96,177.49 395.44,178.41 C396.11,179.58 397.37,180.59 399.70,181.83 C401.83,182.89 403.81,182.66 405.08,181.09 C405.73,180.23 407.61,175.45 407.64,174.60 C407.64,173.59 405.91,171.50 405.33,171.57 Z" 
fill="none" stroke="rgb(54, 108, 125)" stroke-width="3.10" stroke-opacity="1.00" stroke-linejoin="round"/>
</g>
<g stroke-linecap="round" id="부산광역시">
<path title="busan" class="land" d="M260.76,422.81 C259.46,423.77 258.30,424.01 257.30,423.53 C256.16,422.99 255.92,421.42 255.20,420.39 C254.51,419.42 251.74,418.52 251.22,419.10 C250.81,419.61 250.23,424.99 250.12,425.47 C249.76,426.85 248.08,428.17 247.00,427.83 C245.67,427.33 243.17,424.43 242.52,422.66 C242.17,421.60 242.52,418.78 242.95,417.28 C243.81,414.61 248.36,410.88 248.35,410.73 C248.34,410.00 247.26,409.67 247.02,408.98 C246.85,408.52 248.83,406.45 249.56,405.93 C250.77,405.14 260.33,404.37 260.77,403.42 C260.85,403.26 259.10,399.09 259.67,398.42 C260.19,397.80 269.88,397.65 270.33,397.13 C270.90,396.45 268.54,393.28 268.41,392.28 C268.32,391.56 271.51,390.47 272.28,390.08 C273.59,389.31 276.87,387.69 278.16,388.05 C279.20,388.35 281.29,390.00 283.12,390.03 C284.55,390.08 285.44,390.94 285.20,392.18 C284.90,393.49 280.05,397.29 279.26,400.50 C277.80,406.52 276.60,409.21 274.39,410.07 C272.77,410.71 270.55,411.40 270.35,411.82 C269.84,412.91 270.40,414.64 271.54,416.39 C272.24,417.46 272.15,419.44 271.29,420.51 C270.31,421.62 268.83,421.26 267.37,419.66 C265.76,417.87 264.42,417.14 263.33,417.62 C262.70,417.92 262.22,418.38 261.90,419.00 C261.49,419.75 261.20,422.47 260.76,422.81 Z" 
fill="#446F7A" stroke="rgb(54, 108, 125)" stroke-width="3.09" stroke-opacity="1.00" stroke-linejoin="round"/>
</g>
<g stroke-linecap="round" id="전라북도">
<path title="jeonbuk" class="land" d="M102.64,386.19 C102.79,387.40 102.28,391.85 102.18,393.10 C102.05,394.98 103.16,398.05 104.39,398.73 C105.66,399.35 108.64,398.34 110.02,397.02 C111.32,395.70 113.97,393.11 114.79,393.04 C115.96,392.97 118.50,395.92 119.29,396.72 C120.64,398.08 124.14,399.23 125.87,398.89 C126.99,398.64 129.96,395.82 130.91,395.14 C132.23,394.19 135.64,393.39 137.37,393.62 C139.28,394.02 143.00,394.67 144.76,394.28 C146.37,393.88 149.90,391.51 150.75,390.16 C151.61,388.69 151.76,385.29 151.13,383.59 C150.63,382.31 147.96,377.21 147.73,376.74 C146.91,375.06 147.32,372.89 148.64,372.33 C149.54,371.96 150.69,372.29 151.49,371.75 C152.73,370.93 152.63,368.32 151.60,365.13 C151.39,364.50 150.59,360.82 150.41,359.77 C150.20,358.24 150.53,355.76 151.29,354.64 C151.93,353.73 167.61,338.15 168.49,336.67 C169.29,335.27 169.75,333.03 169.78,331.11 C169.79,329.52 169.73,326.27 169.50,325.47 C169.07,324.19 167.74,323.13 166.21,322.89 C163.09,322.48 156.03,322.87 152.75,323.11 C150.61,323.23 149.43,323.88 148.56,324.41 C147.66,324.77 145.07,325.48 144.05,326.89 C142.97,328.33 140.51,330.29 139.15,330.33 C137.79,330.33 135.56,327.85 135.16,327.30 C134.40,326.20 132.10,324.98 129.85,324.48 C126.87,323.80 124.93,322.58 125.23,321.32 C125.24,321.25 128.31,318.46 127.90,317.69 C127.43,316.87 122.69,315.39 120.63,315.38 C118.76,315.42 115.23,317.00 114.04,318.26 C113.16,319.20 110.28,322.66 109.09,322.68 C108.10,322.66 101.64,315.37 98.76,314.25 C96.46,313.41 93.10,314.35 91.82,314.95 C90.66,315.57 89.16,316.89 88.71,317.99 C88.22,319.18 86.82,324.30 86.06,324.94 C85.36,325.54 80.74,325.54 80.36,325.74 C80.31,325.77 77.86,329.30 76.59,329.97 C75.63,330.48 71.10,330.76 68.91,330.86 C66.72,331.01 63.95,332.00 63.41,332.97 C63.02,333.77 64.17,337.45 65.12,338.96 C66.51,341.01 68.96,341.93 71.18,341.25 C71.38,341.18 75.18,339.56 76.78,339.08 C77.90,338.75 80.83,340.28 81.02,341.52 C81.20,343.01 78.67,344.17 75.89,344.45 C74.63,344.58 74.02,344.82 74.05,345.19 C74.10,345.71 78.61,348.90 78.77,349.45 C79.21,350.92 78.75,351.82 77.37,352.15 C76.27,352.38 72.46,349.35 71.72,348.75 C70.42,347.72 69.19,347.83 68.01,349.31 C64.96,353.18 58.71,358.39 56.74,360.28 C55.33,361.70 54.86,364.61 55.93,366.17 C56.81,367.37 60.54,368.63 61.88,368.35 C63.39,367.98 65.89,365.02 66.73,364.16 C68.19,362.70 70.49,362.30 72.16,363.24 C74.20,364.48 75.75,366.34 75.45,367.31 C75.01,368.45 66.02,370.96 63.96,371.63 C58.38,373.47 53.80,375.85 53.54,376.81 C53.23,378.06 54.99,383.43 54.92,383.59 C54.90,383.64 50.68,385.10 50.38,386.06 C50.12,386.98 56.55,395.70 59.34,397.52 C60.84,398.46 63.78,399.30 65.55,399.37 C66.22,399.37 70.10,399.04 70.96,398.81 C73.42,398.10 75.51,396.27 76.63,393.82 C77.16,392.61 79.28,383.14 79.81,382.17 C80.66,380.72 82.28,379.91 83.71,380.30 C85.08,380.75 87.46,382.47 88.06,383.69 C88.17,383.90 89.89,389.40 90.58,389.67 C92.32,390.24 99.77,382.04 100.10,381.98 C101.02,381.88 102.37,384.19 102.64,386.19 Z" 
fill="#21778B" stroke="rgb(54, 108, 125)" stroke-width="2.88" stroke-opacity="1.00" stroke-linejoin="round"/>
</g>
<g stroke-linecap="round" id="전라남도">
<path title="jeonnam" class="land" d="M17.43,445.62 C17.20,446.00 11.78,446.68 11.23,446.96 C10.50,447.33 10.07,450.84 9.93,451.13 C9.83,451.38 7.00,455.02 7.17,455.71 C7.38,456.44 11.25,458.61 12.02,458.20 C13.02,457.62 13.22,456.00 14.30,455.57 C15.32,455.13 16.62,456.20 17.63,455.74 C19.19,454.95 17.46,447.41 17.81,446.52 C18.25,445.49 20.94,444.90 21.95,445.47 C23.10,446.17 23.64,447.20 24.17,449.45 C24.60,451.20 25.89,452.22 27.56,452.00 C29.04,451.76 31.45,450.31 32.22,449.19 C32.96,448.03 32.91,446.07 32.17,444.76 C31.56,443.72 29.52,441.30 29.40,441.00 C29.06,440.02 29.82,438.16 31.06,436.82 C32.51,435.37 35.05,433.46 35.78,433.83 C36.66,434.27 39.78,439.31 40.31,439.46 C40.75,439.61 46.02,437.56 46.81,437.96 C47.50,438.31 47.66,443.49 47.86,444.93 C48.12,446.79 49.80,448.52 51.15,448.31 C51.36,448.27 55.88,446.59 56.99,446.62 C58.81,446.69 61.09,448.37 60.43,449.45 C59.91,450.27 56.62,452.15 54.06,453.42 C52.46,454.43 51.15,455.92 51.66,456.69 C52.02,457.21 56.04,458.15 58.03,458.60 C60.04,459.11 60.98,460.66 60.00,461.91 C58.11,464.15 53.98,464.34 52.51,464.17 C51.18,463.99 49.48,463.61 48.53,463.26 C47.26,462.75 45.51,461.36 45.22,460.35 C45.01,459.54 45.34,454.19 45.32,453.48 C45.25,451.48 44.17,447.88 43.47,447.86 C42.62,447.92 38.94,454.35 36.50,458.49 C36.60,459.66 36.83,462.65 37.25,462.91 C38.03,463.42 39.21,463.00 39.95,463.54 C40.87,464.22 42.61,469.81 42.15,470.83 C41.70,471.75 36.54,472.62 35.22,473.03 C33.04,473.67 24.92,481.31 25.28,482.23 C25.46,482.63 29.96,483.02 30.44,483.31 C31.03,483.64 31.88,486.80 32.31,487.12 C33.09,487.69 36.90,487.50 37.77,486.85 C38.49,486.29 39.20,483.02 39.49,482.75 C40.31,481.96 41.64,481.78 42.39,480.92 C43.12,480.06 42.95,477.28 42.47,475.38 C41.87,473.04 41.93,470.82 42.91,470.46 C43.88,470.17 48.28,471.71 50.21,472.99 C52.09,474.29 53.78,477.37 53.58,479.10 C53.41,480.35 52.03,484.46 52.11,486.06 C52.20,487.58 53.26,489.72 54.54,491.30 C55.50,492.40 57.88,494.59 58.72,494.90 C59.97,495.30 62.24,494.37 63.54,493.06 C66.55,489.88 68.83,484.83 69.25,484.20 C69.79,483.40 76.59,477.00 77.79,475.42 C79.10,473.66 79.84,470.12 79.73,467.10 C79.65,465.66 79.55,464.98 79.42,465.07 C79.37,465.15 79.59,470.92 79.76,472.33 C80.05,474.67 81.31,478.36 82.28,479.62 C83.36,480.95 85.69,481.79 87.17,481.47 C89.12,480.97 94.37,475.41 95.42,472.91 C96.60,469.95 96.47,464.66 96.46,463.37 C97.90,463.65 100.43,463.45 102.06,462.68 C103.19,462.14 106.83,458.73 107.87,457.82 C109.53,456.39 111.59,456.31 113.30,457.44 C114.50,458.24 115.16,458.60 115.28,458.53 C116.18,458.06 117.67,453.80 118.63,453.48 C119.82,453.09 124.72,458.92 124.56,459.47 C124.32,460.19 119.35,461.30 119.28,461.36 C118.68,461.74 117.24,465.58 116.67,465.61 C115.61,465.68 111.64,463.48 110.49,463.84 C109.33,464.21 107.21,471.05 106.82,472.34 C117.03,476.02 124.44,477.94 127.67,477.58 C129.02,477.39 132.06,475.66 132.45,474.64 C132.92,473.39 133.33,467.49 133.54,467.27 C133.92,466.86 138.06,468.91 138.68,468.93 C140.10,469.00 141.69,466.45 141.24,465.10 C140.91,464.18 133.57,459.32 131.82,456.97 C131.09,455.91 129.98,453.25 130.02,452.06 C130.13,450.02 131.60,445.83 132.59,444.80 C133.30,444.12 134.58,444.55 136.07,445.59 C136.85,446.18 139.79,448.57 140.11,449.35 C140.37,450.02 139.74,453.29 139.76,453.67 C139.82,454.52 141.60,457.80 142.12,458.73 C143.94,461.81 145.55,463.78 146.54,463.86 C147.40,463.87 150.76,454.91 151.59,453.60 C152.35,452.47 154.00,452.71 155.50,453.93 C155.84,454.21 156.47,454.82 157.41,455.74 C158.66,454.43 162.28,450.66 162.93,449.77 C164.19,447.99 164.44,444.93 163.42,443.68 C162.72,442.90 158.83,440.51 157.91,440.24 C156.30,439.81 154.21,440.21 153.03,441.13 C151.81,442.08 149.94,443.99 149.42,443.95 C148.53,443.85 145.03,441.55 144.07,440.58 C142.84,439.22 142.59,436.97 143.67,435.70 C144.75,434.50 147.40,433.80 148.96,434.22 C150.48,434.68 153.59,435.55 154.65,435.24 C156.28,434.70 158.62,432.15 159.61,429.83 C160.50,427.60 161.11,423.42 160.46,422.53 C160.35,422.39 155.60,420.36 154.35,419.20 C153.36,418.28 150.72,408.67 150.04,406.97 C149.25,404.99 148.15,402.93 146.71,400.62 C146.20,399.83 144.29,396.71 143.98,396.28 C143.50,395.67 141.42,394.25 140.40,393.88 C138.60,393.30 134.58,393.36 132.60,394.06 C131.29,394.53 126.97,398.04 126.96,398.04 C125.60,398.88 122.78,398.84 121.43,397.97 C121.17,397.79 117.45,394.48 116.54,394.08 C115.27,393.54 113.82,393.96 112.08,395.27 C110.70,396.32 107.17,398.55 106.03,398.91 C104.64,399.30 103.12,397.80 102.65,395.76 C102.37,394.45 102.28,389.63 102.25,387.23 C102.19,384.93 101.56,382.37 100.85,382.30 C99.58,382.30 92.02,389.90 91.09,389.65 C90.27,389.38 88.49,384.65 87.79,383.38 C87.24,382.40 84.02,380.35 83.10,380.25 C81.94,380.18 80.09,381.76 79.51,383.19 C78.74,385.21 77.22,392.20 75.41,396.08 C75.18,396.66 77.02,399.44 77.26,400.13 C77.50,400.80 77.15,401.88 77.79,402.19 C78.62,402.61 79.83,401.90 80.57,402.47 C80.69,402.56 79.93,407.18 80.74,407.57 C81.91,408.11 84.72,406.27 85.86,404.51 C86.80,403.05 88.24,401.88 89.75,401.39 C90.68,401.12 91.25,401.18 91.47,401.56 C91.66,401.92 92.30,406.88 92.67,407.98 C93.01,409.00 93.36,409.51 93.71,409.50 C94.24,409.46 96.47,405.84 96.81,405.66 C97.84,405.10 100.92,406.59 100.99,407.72 C101.02,408.70 100.14,409.65 100.36,410.61 C100.54,411.52 101.75,411.97 101.99,412.87 C102.11,413.41 99.72,417.32 99.32,417.72 C98.69,418.29 94.58,420.53 94.21,420.57 C94.06,420.58 90.76,419.59 90.38,419.48 C89.58,419.23 85.84,418.51 84.64,419.29 C84.33,419.49 83.23,422.63 82.48,422.99 C80.52,423.88 75.84,420.98 75.90,420.13 C75.97,419.25 77.02,418.72 77.29,417.88 C77.78,416.37 77.61,415.39 76.78,414.93 C75.81,414.40 74.60,415.28 73.50,415.40 C72.31,415.52 69.66,413.00 69.22,411.36 C68.85,409.77 70.52,405.27 71.58,404.54 C72.18,404.15 75.43,405.01 76.03,404.67 C77.06,404.06 77.64,403.16 77.78,401.95 C77.83,401.41 75.54,397.02 75.33,396.94 C75.30,396.93 72.68,398.47 70.71,399.01 C68.99,399.49 65.49,399.86 64.18,399.62 C62.05,399.20 57.09,394.54 55.96,394.00 C54.30,393.23 49.86,393.28 48.85,394.22 C48.12,394.92 46.79,400.21 46.53,400.60 C46.14,401.24 43.20,402.15 42.93,402.57 C42.44,403.32 42.63,407.13 43.18,407.91 C43.56,408.42 46.44,409.05 46.78,409.36 C47.15,409.67 48.84,413.23 49.39,413.72 C49.88,414.17 53.61,415.57 54.10,416.03 C54.85,416.76 55.04,419.51 54.37,420.48 C53.82,421.20 50.39,423.21 49.37,423.30 C47.88,423.38 44.73,422.12 43.59,420.94 C41.83,419.07 41.31,417.50 41.56,415.46 C41.74,414.04 40.63,413.29 38.75,413.61 C37.15,413.89 33.79,415.68 32.62,415.94 C32.27,416.02 28.42,415.56 27.95,415.98 C27.50,416.40 27.90,419.85 27.78,420.12 C27.46,420.87 26.49,421.23 26.18,421.99 C25.98,422.48 26.79,425.28 27.08,426.34 C27.58,428.35 28.66,430.51 29.56,430.69 C30.34,430.82 36.02,423.64 38.04,421.98 C39.28,421.00 41.30,420.48 42.87,420.62 C44.42,420.82 45.37,422.21 44.97,423.65 C44.77,424.25 42.36,426.61 41.69,427.05 C40.85,427.60 37.09,429.37 36.90,430.03 C36.57,431.16 37.42,432.61 36.74,433.57 C36.23,434.29 34.89,433.36 34.11,433.76 C33.15,434.24 32.97,435.64 32.12,436.31 C31.66,436.64 31.02,435.90 30.45,435.94 C30.23,435.96 24.69,438.16 23.85,438.07 C23.08,437.98 21.97,434.67 21.91,434.59 C21.40,433.83 18.93,433.14 18.17,433.53 C17.58,433.86 13.84,440.38 14.25,441.29 C14.45,441.75 17.67,445.22 17.43,445.62 Z" 
fill="#0D586B" stroke="rgb(54, 108, 125)" stroke-width="3.21" stroke-opacity="1.00" stroke-linejoin="round"/>
</g>
<g stroke-linecap="round" id="광주광역시">
<path title="gwangju" class="land" d="M78.58,401.66 C77.36,402.11 77.13,403.87 76.16,404.74 C75.56,405.29 72.65,404.19 72.21,404.27 C71.23,404.45 69.74,406.52 69.48,407.95 C69.33,408.90 69.66,412.07 70.01,412.89 C70.44,413.78 72.51,415.72 73.28,415.62 C74.28,415.49 75.16,414.69 76.16,414.73 C76.74,414.75 78.09,417.63 77.79,418.23 C77.31,419.19 76.01,419.71 75.79,420.75 C75.71,421.18 79.55,423.06 80.12,423.14 C81.40,423.28 82.39,423.02 83.10,422.37 C84.06,421.49 84.40,420.09 85.29,419.14 C85.89,418.50 89.09,418.55 89.93,418.87 C90.00,418.89 93.56,420.96 94.44,420.88 C95.36,420.77 98.85,418.48 99.62,417.49 C100.76,415.95 101.18,413.75 100.96,411.31 C100.78,409.98 100.43,406.27 99.88,405.89 C98.78,405.17 97.61,405.09 96.37,405.64 C95.72,405.94 94.61,409.73 94.28,409.80 C92.88,410.02 92.07,403.05 91.61,402.23 C91.05,401.30 89.28,401.19 88.11,402.00 C87.36,402.54 84.94,405.73 84.23,406.59 C83.17,407.86 81.74,407.86 81.14,406.60 C80.73,405.73 79.38,401.37 78.58,401.66 Z" 
fill="#006780" stroke="rgb(54, 108, 125)" stroke-width="2.41" stroke-opacity="1.00" stroke-linejoin="round"/>
</g>
<g stroke-linecap="round" id="제주도">
<path title="jeju" class="land" d="M36.33,581.60 C35.21,583.14 28.33,585.29 27.05,586.76 C25.91,588.16 25.73,591.37 26.64,593.61 C27.03,594.50 30.40,598.24 31.08,598.89 C32.60,600.26 35.42,601.97 36.52,601.95 C38.23,601.87 39.55,600.69 41.68,597.74 C42.83,596.16 45.02,595.71 46.67,596.71 C47.69,597.35 50.71,599.59 52.71,599.77 C54.91,599.93 60.69,596.92 64.62,596.81 C66.86,596.76 71.45,596.59 72.40,596.10 C73.70,595.42 75.02,592.44 75.50,591.84 C75.96,591.27 82.90,590.38 84.98,589.21 C86.23,588.46 88.01,585.96 88.59,584.10 C89.21,581.95 89.34,578.06 88.85,576.06 C88.51,574.77 86.67,571.63 85.71,570.51 C84.52,569.18 82.04,567.60 80.62,567.31 C78.04,566.86 69.83,570.13 67.46,570.90 C63.89,572.05 57.87,573.13 55.04,573.11 C52.56,573.08 44.26,571.73 41.71,572.88 C40.27,573.59 38.95,575.63 37.88,578.34 C37.25,579.97 36.73,581.06 36.33,581.60 Z" 
fill="#053F4E" stroke="rgb(54, 108, 125)" stroke-width="3.10" stroke-opacity="1.00" stroke-linejoin="round"/>
</g>
</svg>
